<?xml version="1.0" standalone="no"?>
<!DOCTYPE svg PUBLIC "-//W3C//DTD SVG 20010904//EN"
 "http://www.w3.org/TR/2001/REC-SVG-20010904/DTD/svg10.dtd">
<svg version="1.0" xmlns="http://www.w3.org/2000/svg"
 width="291.000000pt" height="213.000000pt" viewBox="0 0 291.000000 213.000000"
 preserveAspectRatio="xMidYMid meet">

<g transform="translate(0.000000,213.000000) scale(0.100000,-0.100000)"
fill="#000000" stroke="none">
<path d="M2255 2056 c-68 -34 -102 -63 -226 -186 -171 -169 -222 -246 -234
-346 l-7 -62 -46 -13 c-26 -7 -69 -12 -97 -11 -84 4 -128 3 -165 -3 -19 -3
-44 -5 -55 -5 -11 0 -35 -5 -52 -11 -24 -8 -48 -7 -87 2 l-54 12 -6 47 c-10
76 -112 199 -281 336 -107 88 -290 154 -427 154 -67 0 -87 -3 -92 -15 -3 -8
-10 -15 -16 -15 -26 0 -148 -90 -189 -138 -23 -29 -38 -52 -33 -52 6 0 14 5
17 10 3 6 15 10 25 10 10 0 51 16 91 35 59 28 85 35 135 35 77 0 164 -16 182
-34 7 -7 17 -54 22 -107 14 -139 26 -194 63 -273 31 -66 47 -122 63 -221 3
-21 15 -53 27 -70 20 -28 22 -42 21 -200 0 -172 -15 -304 -54 -485 -29 -134
-30 -140 -15 -278 7 -72 11 -140 8 -151 l-5 -21 596 0 c523 1 596 3 596 16 0
9 7 14 18 12 11 -2 22 8 32 29 11 22 24 33 45 37 17 3 45 20 63 36 18 17 39
30 46 30 8 0 17 8 20 18 13 35 31 59 43 55 7 -3 19 2 28 10 13 13 13 16 -2 21
-14 6 -14 8 1 24 21 24 20 27 -7 27 -18 0 -23 -5 -19 -17 5 -21 -23 -25 -31
-5 -3 6 -6 -2 -6 -20 -1 -23 -6 -32 -18 -31 -20 0 -85 -23 -93 -34 -3 -4 -25
-2 -48 4 -38 9 -47 18 -43 40 0 4 -8 10 -19 13 -34 11 -22 22 21 21 25 -1 44
4 46 12 3 8 -7 12 -32 12 -37 0 -37 0 -30 32 3 18 6 55 5 81 -1 44 3 52 35 81
24 22 44 32 60 30 14 -1 25 1 25 5 0 15 42 51 52 45 7 -4 8 4 3 25 -4 20 -3
31 4 31 6 0 11 8 11 18 0 27 43 63 71 60 l24 -3 -1 105 c0 80 -4 114 -18 145
-11 22 -18 49 -17 61 1 11 -3 52 -10 90 -13 79 -13 114 1 128 6 6 10 33 10 60
0 43 -5 55 -32 83 -29 30 -30 33 -11 33 12 0 25 -4 28 -10 13 -21 25 -8 25 28
0 20 6 49 14 64 48 91 60 143 65 283 l6 140 40 20 c32 16 60 20 145 20 91 0
113 -4 168 -26 66 -28 83 -22 30 11 -22 13 -27 20 -15 20 56 0 -41 64 -138 91
-55 15 -93 19 -124 15 -28 -3 -41 -2 -32 3 7 5 9 11 4 14 -22 14 -74 1 -148
-37z m-141 -271 c-4 -9 0 -15 9 -15 30 0 11 -34 -24 -42 -50 -11 -71 0 -34 18
19 8 21 12 8 8 -31 -7 -29 8 5 28 34 22 43 22 36 3z m-1148 -106 c9 -15 -23
-10 -35 5 -10 12 -8 13 9 9 11 -3 23 -9 26 -14z m49 -129 c3 -5 -3 -10 -14
-10 -11 0 -23 5 -26 10 -3 6 3 10 14 10 11 0 23 -4 26 -10z m985 -25 c-15 -18
-7 -19 23 -4 22 12 22 12 4 -9 -26 -29 -71 -43 -91 -29 -13 11 -13 14 3 34 10
11 29 23 42 25 31 5 35 2 19 -17z m-980 -70 c16 -19 3 -19 -30 0 -24 13 -24
14 -4 15 12 0 27 -7 34 -15z m1030 -15 c0 -5 -15 -16 -32 -23 l-33 -14 30 -7
c43 -11 52 -22 47 -56 -6 -38 -19 -39 -27 0 -7 32 -29 40 -39 14 -4 -10 -15
-14 -33 -12 -26 3 -28 7 -29 47 0 34 4 45 20 51 30 12 96 12 96 0z m-985 -80
c0 -10 -12 -16 -32 -18 -28 -3 -33 0 -33 18 0 18 5 21 33 18 20 -2 32 -8 32
-18z m637 -67 c32 -34 62 -142 55 -196 -5 -34 -2 -39 24 -52 34 -18 33 -16 15
-81 -8 -27 -17 -74 -21 -104 -9 -79 -24 -120 -57 -162 -16 -21 -28 -43 -26
-50 2 -7 0 -14 -5 -15 -17 -6 -25 -2 -30 16 -3 13 -11 18 -23 15 -15 -4 -22 3
-30 30 l-11 35 39 6 c23 4 38 12 38 21 0 8 -6 14 -14 14 -20 0 -25 22 -9 39 9
9 13 31 12 62 -2 27 0 52 4 55 4 4 10 29 13 56 5 36 13 53 30 64 16 11 21 22
17 37 -3 12 -6 30 -6 39 -1 9 -4 15 -8 12 -4 -2 -10 10 -14 26 -4 17 -16 40
-28 51 -14 13 -18 22 -11 27 21 13 27 52 10 58 -9 3 -16 10 -16 15 0 18 27 8
52 -18z m-52 -13 c0 -5 -2 -10 -4 -10 -3 0 -8 5 -11 10 -3 6 -1 10 4 10 6 0
11 -4 11 -10z m-211 -20 c9 0 21 -13 28 -30 9 -25 9 -30 -3 -30 -8 0 -14 -8
-14 -19 0 -12 -9 -20 -25 -23 -23 -5 -25 -2 -25 31 0 20 -3 47 -7 60 -5 20 -3
23 11 18 10 -4 25 -7 35 -7z m653 -110 c28 -27 54 -50 57 -50 10 -1 61 -73 61
-86 0 -9 -10 -10 -42 -2 -53 11 -56 14 -61 61 -3 28 -15 49 -47 82 -61 62 -32
57 32 -5z m16 -170 c9 -5 30 -15 47 -21 23 -8 26 -12 15 -19 -22 -14 -30 -12
-30 6 0 14 -2 14 -16 3 -9 -7 -20 -23 -24 -35 -5 -11 -42 -47 -84 -78 -41 -31
-79 -63 -84 -72 -10 -19 -42 -8 -42 15 0 25 11 36 56 59 47 24 90 71 111 120
14 34 23 38 51 22z m-700 -32 c14 -14 16 -94 3 -102 -9 -6 -15 12 -26 82 -6
33 3 40 23 20z m775 -70 c-7 -13 -21 -9 -27 9 -4 9 -1 20 6 24 13 8 30 -18 21
-33z m-1022 -51 c40 -24 74 -48 76 -54 6 -17 -49 -23 -64 -7 -8 8 -20 15 -26
15 -7 1 -16 2 -22 3 -33 4 -67 60 -48 79 9 9 3 12 84 -36z m1016 -13 c4 -12
-23 -51 -30 -44 -9 9 5 61 16 57 6 -2 12 -8 14 -13z m-315 -266 c45 -26 52
-37 38 -64 -8 -13 -20 -24 -27 -24 -7 0 -16 -7 -19 -15 -4 -8 -13 -15 -21 -15
-8 0 -13 -7 -11 -17 2 -12 13 -18 31 -18 15 -1 34 -8 43 -17 14 -14 12 -16
-21 -21 -55 -9 -68 -23 -48 -53 8 -13 14 -24 12 -25 -56 -15 -169 0 -169 23 0
44 27 91 76 130 36 28 55 52 60 73 6 28 21 55 30 55 3 0 14 -6 26 -12z m-372
-188 c0 -5 -7 -7 -15 -4 -8 4 -15 8 -15 10 0 2 7 4 15 4 8 0 15 -4 15 -10z
m88 -98 c2 -7 -2 -10 -12 -6 -9 3 -16 11 -16 16 0 13 23 5 28 -10z"/>
<path d="M2370 814 c0 -9 31 -66 35 -62 8 8 -8 57 -21 62 -8 3 -14 3 -14 0z"/>
<path d="M2402 709 c-16 -25 -15 -30 4 -22 12 4 15 -1 12 -23 -2 -16 -6 -32
-11 -35 -4 -3 -9 -31 -11 -62 l-5 -57 29 20 c15 11 35 20 44 20 19 0 40 -36
26 -45 -5 -3 -7 -12 -3 -20 3 -8 0 -15 -7 -15 -9 0 -10 -3 -1 -13 6 -8 8 -17
4 -21 -4 -4 -1 -11 7 -16 19 -12 7 -23 -17 -16 -11 3 -24 21 -31 39 -16 43
-15 47 4 47 13 0 14 3 5 14 -9 11 -9 15 1 19 9 4 8 6 -3 6 -21 1 -43 -25 -34
-39 4 -6 -1 -18 -11 -25 -18 -14 -18 -14 1 -15 17 -1 18 -2 5 -13 -9 -7 -14
-19 -13 -27 2 -8 -10 -30 -27 -48 -23 -25 -26 -34 -15 -38 17 -7 58 -74 45
-74 -6 0 -10 5 -10 10 0 6 -7 10 -15 10 -8 0 -15 -7 -15 -15 0 -8 -7 -15 -16
-15 -13 0 -14 -3 -5 -14 10 -12 9 -19 -6 -34 -27 -30 -58 -76 -56 -84 1 -3 5
-20 8 -37 6 -34 -7 -40 -32 -16 -8 9 -18 13 -22 10 -3 -4 2 -11 12 -16 9 -6
17 -19 17 -29 0 -19 8 -20 155 -20 l155 0 0 256 c0 254 0 255 -24 287 -13 18
-29 51 -35 75 -7 23 -16 42 -21 42 -5 0 -25 15 -43 34 -32 31 -35 32 -45 15z
m68 -89 c0 -5 -4 -10 -10 -10 -5 0 -10 5 -10 10 0 6 5 10 10 10 6 0 10 -4 10
-10z m10 -272 c-13 -5 -31 -6 -41 -3 -15 5 -16 10 -7 30 l11 24 30 -21 30 -21
-23 -9z m-90 -188 c0 -5 -7 -10 -15 -10 -8 0 -15 5 -15 10 0 6 7 10 15 10 8 0
15 -4 15 -10z"/>
<path d="M2235 590 c3 -5 8 -10 11 -10 2 0 4 5 4 10 0 6 -5 10 -11 10 -5 0 -7
-4 -4 -10z"/>
<path d="M2161 561 c-27 -37 -27 -61 -1 -61 11 0 20 5 20 10 0 6 9 19 21 31
16 16 18 23 8 35 -17 20 -25 18 -48 -15z"/>
<path d="M2215 480 c3 -5 11 -10 16 -10 6 0 7 5 4 10 -3 6 -11 10 -16 10 -6 0
-7 -4 -4 -10z"/>
<path d="M2015 360 c3 -5 8 -10 11 -10 2 0 4 5 4 10 0 6 -5 10 -11 10 -5 0 -7
-4 -4 -10z"/>
<path d="M2285 200 c3 -5 8 -10 11 -10 2 0 4 5 4 10 0 6 -5 10 -11 10 -5 0 -7
-4 -4 -10z"/>
<path d="M2040 50 c0 -5 7 -10 16 -10 8 0 12 5 9 10 -3 6 -10 10 -16 10 -5 0
-9 -4 -9 -10z"/>
<path d="M2195 19 c-4 -6 -5 -13 -2 -16 7 -7 27 6 27 18 0 12 -17 12 -25 -2z"/>
</g>
</svg>
